# xmcd
#
# Track frame offsets: 
#        182
#        13635
#        28845
#        42332
#        57155
#        75200
#        85962
#        99077
#        114097
#        132047
#        149397
#
# Disc length: 2545 seconds
#
# Revision: 4
# Processed by: cddbd v1.5.2PL0 Copyright (c) Steve Scherf et al.
# Submitted via: ExactAudioCopyFreeDBPlugin 1.0
#
DISCID=7a09ef0b
DTITLE=Dwight Yoakam - Under The Covers
DYEAR=1997
DGENRE=Pop
TTITLE0=Claudette (Roy Orbison)
TTITLE1=Train In Vain (The Clash)
TTITLE2=Tired Of Waiting For You (The Kinks)
TTITLE3=Good Time Charlie's Got The Blues (Danny O'Keefe)
TTITLE4=Baby Don't Go w Sheryl Crow  (Sonny and Cher)
TTITLE5=Playboy
TTITLE6=Wichita Lineman (Glen Campbell)
TTITLE7=Here Comes The Night (Them)
TTITLE8=The Last Time (The Rolling Stones)
TTITLE9=Things We Said Today (The Beatles)
TTITLE10=North To Alaska (Johnny Horton)
EXTD=\nURL: http://www.dwightyoakam.com/ "Dwight Yoakam -- The Dwight 
EXTD=Site"
EXTT0=
EXTT1=
EXTT2=
EXTT3=
EXTT4=
EXTT5=
EXTT6=
EXTT7=
EXTT8=
EXTT9=
EXTT10=
PLAYORDER=
